<?xml version="1.0" encoding="UTF-8"?>
<!-- Generated by jsxcad -->
<!DOCTYPE svg PUBLIC "-//W3C//DTD SVG 1.1 Tiny//EN" "http://www.w3.org/Graphics/SVG/1.1/DTD/svg11-tiny.dtd">
<svg baseProfile="tiny" height="77.47266355417842mm" width="40.24615694654686mm" viewBox="0 0 40.24615694654686 77.47266355417842" version="1.1" stroke="black" stroke-width=".1" fill="none" xmlns="http://www.w3.org/2000/svg">
<path fill="#000000" stroke="#000000" d="M107.50282 29.33896 L108.8017 30.34992 L109.70195 31.72785 L110.106 33.32344 L110.36924 58.11292 L110.35564 59.71749 L110.23258 61.3174 L110.00063 62.90518 L109.66086 64.47342 L109.21486 66.01483 L108.66471 67.52221 L108.01298 68.98852 L107.26271 70.40695 L106.41738 71.77087 L105.48095 73.07392 L104.45778 74.31003 L103.35264 75.47343 L102.17068 76.5587 L100.91741 77.56079 L99.59869 78.47501 L98.22064 79.29711 L96.78971 80.02325 L95.31256 80.65004 L93.79608 81.17457 L92.24734 81.5944 L90.67357 81.90755 L70.12308 84.77142 L70.12308 61.61227 L70.4352 60.891 L70.90091 59.81481 L71.26079 58.98318 L71.3552 58.72094 L71.75687 57.60526 L72.16131 56.48188 L72.43119 55.73227 L72.5424 55.34946 L72.87407 54.20784 L73.20517 53.06821 L73.39515 52.41428 L74.14888 49.0423 L74.68939 45.62966 L75.01455 42.18981 L75.12308 38.73633 L75.01455 35.28285 L74.95556 34.65879 L74.84105 33.44748 L74.73952 32.37331 L74.68939 31.843 L74.64244 31.54658 L74.14888 28.43036 L73.39515 25.05839 L72.43119 21.7404 L71.26079 18.48948 L70.12308 15.8604 L70.12308 7.29876 z"/>
<path fill="#000000" stroke="#000000" d="M71.26078545188601 18.48948196814467 L71.26078545188601 18.48948196814467 L70.12308007633852 15.860399966965367 L70.12308007633852 15.860399966965367 z"/>
<path fill="#000000" stroke="#000000" d="M70.12307847327342 7.29876 L70.12307847327342 7.29876 L70.12307847327342 15.8604 L70.12307847327342 15.8604 z"/>
<path fill="#000000" stroke="#000000" d="M72.4311881572881 21.7404006634171 L72.4311881572881 21.7404006634171 L71.2607853085836 18.48948168901383 L71.2607853085836 18.48948168901383 z"/>
<path fill="#000000" stroke="#000000" d="M107.50281750146429 29.338964237466026 L107.50281750146429 29.338964237466026 L70.12307917816753 7.298761393811253 L70.12307917816753 7.298761393811253 z"/>
<path fill="#000000" stroke="#000000" d="M73.39515269394926 25.058389217335385 L73.39515269394926 25.058389217335385 L72.43118789374654 21.740400611923192 L72.43118789374654 21.740400611923192 z"/>
<path fill="#000000" stroke="#000000" d="M74.14887750537257 28.430360557615295 L74.14887750537257 28.430360557615295 L73.39515265361084 25.0583894068477 L73.39515265361084 25.0583894068477 z"/>
<path fill="#000000" stroke="#000000" d="M74.68938651048875 31.843000552684284 L74.68938651048875 31.843000552684284 L74.64243815347247 31.546580292461226 L74.14887741145823 28.430360409984736 L74.14887741145823 28.430360409984736 L74.64243815347247 31.546580292461226 z"/>
<path fill="#000000" stroke="#000000" d="M75.01454824969771 35.28285016545228 L75.01454824969771 35.28285016545228 L74.95555722056777 34.6587902627337 L74.84105464702283 33.447479560727004 L74.73951576596181 32.37331040023444 L74.68938670343236 31.843000311617388 L74.68938670343236 31.843000311617388 L74.73951576596181 32.37331040023444 L74.84105464702283 33.447479560727004 L74.95555722056777 34.6587902627337 z"/>
<path fill="#000000" stroke="#000000" d="M75.12307841898757 38.736330049685314 L75.12307841898757 38.736330049685314 L75.01454843771369 35.28285004909682 L75.01454843771369 35.28285004909682 z"/>
<path fill="#000000" stroke="#000000" d="M75.01454854929804 42.18980995440985 L75.01454854929804 42.18980995440985 L75.12307853057193 38.73632995382136 L75.12307853057193 38.73632995382136 z"/>
<path fill="#000000" stroke="#000000" d="M74.68938705963951 45.62965953429265 L74.68938705963951 45.62965953429265 L74.148877960609 49.042299676992194 L74.148877960609 49.042299676992194 z"/>
<path fill="#000000" stroke="#000000" d="M108.66471218491591 67.52221079742853 L108.66471218491591 67.52221079742853 L109.21486070109553 66.01483025587876 L109.21486070109553 66.01483025587876 z"/>
<path fill="#000000" stroke="#000000" d="M98.22063929793956 79.29710882317036 L98.22063929793956 79.29710882317036 L99.59868827091634 78.47500710162149 L99.59868827091634 78.47500710162149 z"/>
<path fill="#000000" stroke="#000000" d="M72.43118610292746 55.73226859696755 L72.43118610292746 55.73226859696755 L72.16130946142985 56.48187980610281 L71.75686796858203 57.60525926864453 L71.3551983972535 58.72093942297575 L71.26078644134289 58.9831787188046 L71.26078644134289 58.9831787188046 L71.3551983972535 58.72093942297575 L71.75686796858203 57.60525926864453 L72.16130946142985 56.48187980610281 z"/>
<path fill="#000000" stroke="#000000" d="M96.7897089816211 80.0232479931831 L96.7897089816211 80.0232479931831 L98.22063920496545 79.29710843330535 L98.22063920496545 79.29710843330535 z"/>
<path fill="#000000" stroke="#000000" d="M95.31256171321557 80.65004403747035 L95.31256171321557 80.65004403747035 L96.78970901068796 80.02324766852576 L96.78970901068796 80.02324766852576 z"/>
<path fill="#000000" stroke="#000000" d="M93.79608194767266 81.17457563093892 L93.79608194767266 81.17457563093892 L95.31256138590831 80.65004400681552 L95.31256138590831 80.65004400681552 z"/>
<path fill="#000000" stroke="#000000" d="M92.24733918344106 81.59439698767272 L92.24733918344106 81.59439698767272 L93.7960815206147 81.1745756096247 L93.7960815206147 81.1745756096247 z"/>
<path fill="#000000" stroke="#000000" d="M90.67356941772478 81.90754707371592 L90.67356941772478 81.90754707371592 L92.24733932635245 81.59439661451482 L92.24733932635245 81.59439661451482 z"/>
<path fill="#000000" stroke="#000000" d="M70.12307772693767 61.61226901635809 L70.12307772693767 61.61226901635809 L70.43519890653656 60.89099952681612 L70.90090806375787 59.81480916211321 L71.2607867473283 58.98317859244326 L71.2607867473283 58.98317859244326 L70.90090806375787 59.81480916211321 L70.43519890653656 60.89099952681612 z"/>
<path fill="#000000" stroke="#000000" d="M70.12307847327342 84.77142 L70.12307847327342 84.77142 L70.12307847327342 61.61227 L70.12307847327342 61.61227 z"/>
<path fill="#000000" stroke="#000000" d="M70.12308059050343 84.77142423731001 L70.12308059050343 84.77142423731001 L90.67356962453115 81.90754730572635 L90.67356962453115 81.90754730572635 z"/>
<path fill="#000000" stroke="#000000" d="M100.91740951582514 77.56078930159771 L100.91740951582514 77.56078930159771 L99.59868799131834 78.47500710255943 L99.59868799131834 78.47500710255943 z"/>
<path fill="#000000" stroke="#000000" d="M102.17068057436023 76.55870071832844 L102.17068057436023 76.55870071832844 L100.91740969739134 77.56078962153994 L100.91740969739134 77.56078962153994 z"/>
<path fill="#000000" stroke="#000000" d="M103.35263794342093 75.47342776020464 L103.35263794342093 75.47342776020464 L102.1706804997576 76.55870054427994 L102.1706804997576 76.55870054427994 z"/>
<path fill="#000000" stroke="#000000" d="M104.45777674322203 74.31002690631811 L104.45777674322203 74.31002690631811 L103.35263773006247 75.4734278437386 L103.35263773006247 75.4734278437386 z"/>
<path fill="#000000" stroke="#000000" d="M105.48094819261942 73.07391850396625 L105.48094819261942 73.07391850396625 L104.45777665516691 74.31002723136166 L104.45777665516691 74.31002723136166 z"/>
<path fill="#000000" stroke="#000000" d="M106.41737868072154 71.7708690519068 L106.41737868072154 71.7708690519068 L105.48094822305043 73.07391872300363 L105.48094822305043 73.07391872300363 z"/>
<path fill="#000000" stroke="#000000" d="M107.26270630477202 70.406947709782 L107.26270630477202 70.406947709782 L106.41737883292168 71.77086927667149 L106.41737883292168 71.77086927667149 z"/>
<path fill="#000000" stroke="#000000" d="M73.39515096702729 52.414280280947395 L73.39515096702729 52.414280280947395 L73.20516706865043 53.068209148364225 L72.87407341153633 54.20784099114292 L72.54240224022 55.34946065084407 L72.43118616682459 55.73226888635959 L72.43118616682459 55.73226888635959 L72.54240224022 55.34946065084407 L72.87407341153633 54.20784099114292 L73.20516706865043 53.068209148364225 z"/>
<path fill="#000000" stroke="#000000" d="M108.01298388214397 68.98852205346395 L108.01298388214397 68.98852205346395 L107.26270608776042 70.40694793061692 L107.26270608776042 70.40694793061692 z"/>
<path fill="#000000" stroke="#000000" d="M108.01298385789939 68.98852171471181 L108.01298385789939 68.98852171471181 L108.66471176102206 67.5222107827175 L108.66471176102206 67.5222107827175 z"/>
<path fill="#000000" stroke="#000000" d="M109.66085960519496 64.47341988576528 L109.66085960519496 64.47341988576528 L109.21486078550798 66.01483022728252 L109.21486078550798 66.01483022728252 z"/>
<path fill="#000000" stroke="#000000" d="M110.00062619099327 62.90517917476043 L110.00062619099327 62.90517917476043 L109.66085932719861 64.47341985423435 L109.66085932719861 64.47341985423435 z"/>
<path fill="#000000" stroke="#000000" d="M110.23258180759944 61.31740026406851 L110.23258180759944 61.31740026406851 L110.00062638627192 62.90517947207785 L110.00062638627192 62.90517947207785 z"/>
<path fill="#000000" stroke="#000000" d="M110.35564305917896 59.717490235304304 L110.35564305917896 59.717490235304304 L110.23258203413681 61.31740015646066 L110.23258203413681 61.31740015646066 z"/>
<path fill="#000000" stroke="#000000" d="M110.36923538713509 58.11291996092429 L110.36923538713509 58.11291996092429 L110.35564302836467 59.717490025653355 L110.35564302836467 59.717490025653355 z"/>
<path fill="#000000" stroke="#000000" d="M73.39515128136217 52.414280286418375 L73.39515128136217 52.414280286418375 L74.14887826202036 49.04229961151552 L74.14887826202036 49.04229961151552 z"/>
<path fill="#000000" stroke="#000000" d="M110.10600099076099 33.323439989479304 L110.10600099076099 33.323439989479304 L110.36923546171906 58.112920048191086 L110.36923546171906 58.112920048191086 z"/>
<path fill="#000000" stroke="#000000" d="M74.68938703642567 45.629659719859745 L74.68938703642567 45.629659719859745 L75.01454858269105 42.18980986602486 L75.01454858269105 42.18980986602486 z"/>
<path fill="#000000" stroke="#000000" d="M108.80169682253475 30.349922075941645 L108.80169682253475 30.349922075941645 L109.70194443951173 31.727853632848284 L109.70194443951173 31.727853632848284 z"/>
<path fill="#000000" stroke="#000000" d="M109.70194429395558 31.727851444966685 L109.70194429395558 31.727851444966685 L110.1060020597961 33.32343947838878 L110.1060020597961 33.32343947838878 z"/>
<path fill="#000000" stroke="#000000" d="M108.80169735601459 30.349923396992516 L108.80169735601459 30.349923396992516 L107.50281681481886 29.33896409232081 L107.50281681481886 29.33896409232081 z"/>
<path fill="#000000" stroke="#000000" d="M108.8017 30.34992 L107.50282 29.33896 L70.12308 7.29876 L70.12308 15.8604 L71.26079 18.48948 L72.43119 21.7404 L73.39515 25.05839 L74.14888 28.43036 L74.64244 31.54658 L74.68939 31.843 L74.73952 32.37331 L74.84105 33.44748 L74.95556 34.65879 L75.01455 35.28285 L75.12308 38.73633 L75.01455 42.18981 L74.68939 45.62966 L74.14888 49.0423 L73.39515 52.41428 L73.20517 53.06821 L72.87407 54.20784 L72.5424 55.34946 L72.43119 55.73227 L72.16131 56.48188 L71.75687 57.60526 L71.3552 58.72094 L71.26079 58.98318 L70.90091 59.81481 L70.4352 60.891 L70.12308 61.61227 L70.12308 84.77142 L90.67357 81.90755 L92.24734 81.5944 L93.79608 81.17457 L95.31256 80.65004 L96.78971 80.02325 L98.22064 79.29711 L99.59869 78.47501 L100.91741 77.56079 L102.17068 76.5587 L103.35264 75.47343 L104.45778 74.31003 L105.48095 73.07392 L106.41738 71.77087 L107.26271 70.40695 L108.01298 68.98852 L108.66471 67.52221 L109.21486 66.01483 L109.66086 64.47342 L110.00063 62.90518 L110.23258 61.3174 L110.35564 59.71749 L110.36924 58.11292 L110.106 33.32344 L109.70195 31.72785 z"/>
</svg>