<?xml version="1.0" encoding="UTF-8"?>
<!-- Generated by jsxcad -->
<!DOCTYPE svg PUBLIC "-//W3C//DTD SVG 1.1 Tiny//EN" "http://www.w3.org/Graphics/SVG/1.1/DTD/svg11-tiny.dtd">
<svg baseProfile="tiny" height="77.47266355417842mm" width="40.246156946546805mm" viewBox="0 0 40.246156946546805 77.47266355417842" version="1.1" stroke="black" stroke-width=".1" fill="none" xmlns="http://www.w3.org/2000/svg">
<path fill="#000000" stroke="#000000" d="M37.50282 29.33896 L38.8017 30.34992 L39.70195 31.72785 L40.106 33.32344 L40.36924 58.11292 L40.35564 59.71749 L40.23258 61.3174 L40.00063 62.90518 L39.66086 64.47342 L39.21486 66.01483 L38.66471 67.52221 L38.01298 68.98852 L37.26271 70.40695 L36.41738 71.77087 L35.48095 73.07392 L34.45778 74.31003 L33.35264 75.47343 L32.17068 76.5587 L30.91741 77.56079 L29.59869 78.47501 L28.22064 79.29711 L26.78971 80.02325 L25.31256 80.65004 L23.79608 81.17457 L22.24734 81.5944 L20.67357 81.90755 L0.12308 84.77142 L0.12308 61.61227 L0.4352 60.891 L0.90091 59.81481 L1.26079 58.98318 L1.3552 58.72094 L1.75687 57.60526 L2.16131 56.48188 L2.43119 55.73227 L2.5424 55.34946 L2.87407 54.20784 L3.20517 53.06821 L3.39515 52.41428 L4.14888 49.0423 L4.68939 45.62966 L5.01455 42.18981 L5.12308 38.73633 L5.01455 35.28285 L4.95556 34.65879 L4.84105 33.44748 L4.73952 32.37331 L4.68939 31.843 L4.64244 31.54658 L4.14888 28.43036 L3.39515 25.05839 L2.43119 21.7404 L1.26079 18.48948 L0.12308 15.8604 L0.12308 7.29876 z"/>
<path fill="#000000" stroke="#000000" d="M0.12307847327340227 7.29876 L0.12307847327340227 7.29876 L0.12307847327340227 15.8604 L0.12307847327340227 15.8604 z"/>
<path fill="#000000" stroke="#000000" d="M1.2607854518859918 18.48948196814468 L1.2607854518859918 18.48948196814468 L0.12308007633850926 15.860399966965376 L0.12308007633850926 15.860399966965376 z"/>
<path fill="#000000" stroke="#000000" d="M2.43118815728809 21.74040066341711 L2.43118815728809 21.74040066341711 L1.260785308583582 18.48948168901384 L1.260785308583582 18.48948168901384 z"/>
<path fill="#000000" stroke="#000000" d="M37.502817501464285 29.33896423746604 L37.502817501464285 29.33896423746604 L0.12307917816752081 7.298761393811264 L0.12307917816752081 7.298761393811264 z"/>
<path fill="#000000" stroke="#000000" d="M3.395152693949241 25.058389217335392 L3.395152693949241 25.058389217335392 L2.4311878937465266 21.7404006119232 L2.4311878937465266 21.7404006119232 z"/>
<path fill="#000000" stroke="#000000" d="M4.148877505372551 28.4303605576153 L4.148877505372551 28.4303605576153 L3.3951526536108174 25.058389406847706 L3.3951526536108174 25.058389406847706 z"/>
<path fill="#000000" stroke="#000000" d="M4.689386510488726 31.843000552684288 L4.689386510488726 31.843000552684288 L4.642438153472443 31.54658029246123 L4.148877411458212 28.43036040998474 L4.148877411458212 28.43036040998474 L4.642438153472443 31.54658029246123 z"/>
<path fill="#000000" stroke="#000000" d="M5.0145482496976825 35.28285016545228 L5.0145482496976825 35.28285016545228 L4.955557220567749 34.6587902627337 L4.8410546470228155 33.447479560727004 L4.739515765961794 32.373310400234445 L4.689386703432337 31.84300031161739 L4.689386703432337 31.84300031161739 L4.739515765961794 32.373310400234445 L4.8410546470228155 33.447479560727004 L4.955557220567749 34.6587902627337 z"/>
<path fill="#000000" stroke="#000000" d="M5.1230784189875465 38.736330049685314 L5.1230784189875465 38.736330049685314 L5.014548437713659 35.28285004909683 L5.014548437713659 35.28285004909683 z"/>
<path fill="#000000" stroke="#000000" d="M5.014548549298015 42.18980995440985 L5.014548549298015 42.18980995440985 L5.123078530571903 38.73632995382136 L5.123078530571903 38.73632995382136 z"/>
<path fill="#000000" stroke="#000000" d="M4.689387059639497 45.62965953429264 L4.689387059639497 45.62965953429264 L4.14887796060898 49.04229967699219 L4.14887796060898 49.04229967699219 z"/>
<path fill="#000000" stroke="#000000" d="M38.66471218491589 67.52221079742851 L38.66471218491589 67.52221079742851 L39.21486070109551 66.01483025587875 L39.21486070109551 66.01483025587875 z"/>
<path fill="#000000" stroke="#000000" d="M28.220639297939556 79.29710882317036 L28.220639297939556 79.29710882317036 L29.598688270916334 78.47500710162147 L29.598688270916334 78.47500710162147 z"/>
<path fill="#000000" stroke="#000000" d="M2.4311861029274326 55.73226859696754 L2.4311861029274326 55.73226859696754 L2.1613094614298403 56.4818798061028 L1.7568679685820159 57.605259268644524 L1.3551983972534818 58.720939422975746 L1.2607864413428649 58.98317871880459 L1.2607864413428649 58.98317871880459 L1.3551983972534818 58.720939422975746 L1.7568679685820159 57.605259268644524 L2.1613094614298403 56.4818798061028 z"/>
<path fill="#000000" stroke="#000000" d="M26.789708981621096 80.02324799318309 L26.789708981621096 80.02324799318309 L28.220639204965444 79.29710843330534 L28.220639204965444 79.29710843330534 z"/>
<path fill="#000000" stroke="#000000" d="M25.31256171321557 80.65004403747034 L25.31256171321557 80.65004403747034 L26.789709010687965 80.02324766852574 L26.789709010687965 80.02324766852574 z"/>
<path fill="#000000" stroke="#000000" d="M23.796081947672654 81.17457563093892 L23.796081947672654 81.17457563093892 L25.312561385908307 80.65004400681552 L25.312561385908307 80.65004400681552 z"/>
<path fill="#000000" stroke="#000000" d="M22.247339183441067 81.59439698767271 L22.247339183441067 81.59439698767271 L23.796081520614702 81.1745756096247 L23.796081520614702 81.1745756096247 z"/>
<path fill="#000000" stroke="#000000" d="M20.673569417724792 81.90754707371592 L20.673569417724792 81.90754707371592 L22.247339326352453 81.5943966145148 L22.247339326352453 81.5943966145148 z"/>
<path fill="#000000" stroke="#000000" d="M0.12307772693765162 61.612269016358084 L0.12307772693765162 61.612269016358084 L0.4351989065365442 60.8909995268161 L0.9009080637578449 59.8148091621132 L1.2607867473282741 58.983178592443245 L1.2607867473282741 58.983178592443245 L0.9009080637578449 59.8148091621132 L0.4351989065365442 60.8909995268161 z"/>
<path fill="#000000" stroke="#000000" d="M0.12308059050343655 84.77142423731001 L0.12308059050343655 84.77142423731001 L20.673569624531165 81.90754730572635 L20.673569624531165 81.90754730572635 z"/>
<path fill="#000000" stroke="#000000" d="M0.12307847327340227 84.77142 L0.12307847327340227 84.77142 L0.12307847327340227 61.61227 L0.12307847327340227 61.61227 z"/>
<path fill="#000000" stroke="#000000" d="M30.917409515825135 77.5607893015977 L30.917409515825135 77.5607893015977 L29.598687991318336 78.47500710255942 L29.598687991318336 78.47500710255942 z"/>
<path fill="#000000" stroke="#000000" d="M32.170680574360226 76.55870071832842 L32.170680574360226 76.55870071832842 L30.91740969739133 77.56078962153993 L30.91740969739133 77.56078962153993 z"/>
<path fill="#000000" stroke="#000000" d="M33.35263794342092 75.47342776020463 L33.35263794342092 75.47342776020463 L32.17068049975758 76.55870054427993 L32.17068049975758 76.55870054427993 z"/>
<path fill="#000000" stroke="#000000" d="M34.45777674322201 74.3100269063181 L34.45777674322201 74.3100269063181 L33.352637730062455 75.47342784373859 L33.352637730062455 75.47342784373859 z"/>
<path fill="#000000" stroke="#000000" d="M35.48094819261941 73.07391850396624 L35.48094819261941 73.07391850396624 L34.4577766551669 74.31002723136164 L34.4577766551669 74.31002723136164 z"/>
<path fill="#000000" stroke="#000000" d="M36.417378680721534 71.77086905190679 L36.417378680721534 71.77086905190679 L35.48094822305042 73.07391872300362 L35.48094822305042 73.07391872300362 z"/>
<path fill="#000000" stroke="#000000" d="M37.26270630477202 70.40694770978199 L37.26270630477202 70.40694770978199 L36.41737883292168 71.77086927667148 L36.41737883292168 71.77086927667148 z"/>
<path fill="#000000" stroke="#000000" d="M3.3951509670272744 52.41428028094739 L3.3951509670272744 52.41428028094739 L3.2051670686504043 53.06820914836421 L2.87407341153631 54.207840991142916 L2.542402240219978 55.349460650844065 L2.4311861668245642 55.732268886359584 L2.4311861668245642 55.732268886359584 L2.542402240219978 55.349460650844065 L2.87407341153631 54.207840991142916 L3.2051670686504043 53.06820914836421 z"/>
<path fill="#000000" stroke="#000000" d="M38.012983882143956 68.98852205346394 L38.012983882143956 68.98852205346394 L37.2627060877604 70.40694793061692 L37.2627060877604 70.40694793061692 z"/>
<path fill="#000000" stroke="#000000" d="M38.012983857899364 68.9885217147118 L38.012983857899364 68.9885217147118 L38.66471176102204 67.52221078271748 L38.66471176102204 67.52221078271748 z"/>
<path fill="#000000" stroke="#000000" d="M39.66085960519493 64.47341988576527 L39.66085960519493 64.47341988576527 L39.21486078550796 66.01483022728252 L39.21486078550796 66.01483022728252 z"/>
<path fill="#000000" stroke="#000000" d="M40.000626190993245 62.90517917476042 L40.000626190993245 62.90517917476042 L39.66085932719859 64.47341985423435 L39.66085932719859 64.47341985423435 z"/>
<path fill="#000000" stroke="#000000" d="M40.23258180759942 61.3174002640685 L40.23258180759942 61.3174002640685 L40.0006263862719 62.90517947207784 L40.0006263862719 62.90517947207784 z"/>
<path fill="#000000" stroke="#000000" d="M40.35564305917893 59.717490235304304 L40.35564305917893 59.717490235304304 L40.23258203413679 61.31740015646066 L40.23258203413679 61.31740015646066 z"/>
<path fill="#000000" stroke="#000000" d="M40.36923538713506 58.11291996092429 L40.36923538713506 58.11291996092429 L40.355643028364646 59.717490025653355 L40.355643028364646 59.717490025653355 z"/>
<path fill="#000000" stroke="#000000" d="M3.395151281362149 52.41428028641837 L3.395151281362149 52.41428028641837 L4.1488782620203395 49.04229961151551 L4.1488782620203395 49.04229961151551 z"/>
<path fill="#000000" stroke="#000000" d="M40.10600099076096 33.323439989479304 L40.10600099076096 33.323439989479304 L40.369235461719036 58.112920048191086 L40.369235461719036 58.112920048191086 z"/>
<path fill="#000000" stroke="#000000" d="M4.6893870364256465 45.62965971985974 L4.6893870364256465 45.62965971985974 L5.014548582691028 42.18980986602485 L5.014548582691028 42.18980986602485 z"/>
<path fill="#000000" stroke="#000000" d="M38.80169682253474 30.34992207594166 L38.80169682253474 30.34992207594166 L39.70194443951173 31.727853632848298 L39.70194443951173 31.727853632848298 z"/>
<path fill="#000000" stroke="#000000" d="M39.701944293955556 31.727851444966692 L39.701944293955556 31.727851444966692 L40.106002059796076 33.323439478388785 L40.106002059796076 33.323439478388785 z"/>
<path fill="#000000" stroke="#000000" d="M38.80169735601458 30.34992339699253 L38.80169735601458 30.34992339699253 L37.50281681481884 29.338964092320825 L37.50281681481884 29.338964092320825 z"/>
<path fill="#000000" stroke="#000000" d="M38.8017 30.34992 L37.50282 29.33896 L0.12308 7.29876 L0.12308 15.8604 L1.26079 18.48948 L2.43119 21.7404 L3.39515 25.05839 L4.14888 28.43036 L4.64244 31.54658 L4.68939 31.843 L4.73952 32.37331 L4.84105 33.44748 L4.95556 34.65879 L5.01455 35.28285 L5.12308 38.73633 L5.01455 42.18981 L4.68939 45.62966 L4.14888 49.0423 L3.39515 52.41428 L3.20517 53.06821 L2.87407 54.20784 L2.5424 55.34946 L2.43119 55.73227 L2.16131 56.48188 L1.75687 57.60526 L1.3552 58.72094 L1.26079 58.98318 L0.90091 59.81481 L0.4352 60.891 L0.12308 61.61227 L0.12308 84.77142 L20.67357 81.90755 L22.24734 81.5944 L23.79608 81.17457 L25.31256 80.65004 L26.78971 80.02325 L28.22064 79.29711 L29.59869 78.47501 L30.91741 77.56079 L32.17068 76.5587 L33.35264 75.47343 L34.45778 74.31003 L35.48095 73.07392 L36.41738 71.77087 L37.26271 70.40695 L38.01298 68.98852 L38.66471 67.52221 L39.21486 66.01483 L39.66086 64.47342 L40.00063 62.90518 L40.23258 61.3174 L40.35564 59.71749 L40.36924 58.11292 L40.106 33.32344 L39.70195 31.72785 z"/>
</svg>